<?xml version="1.0" standalone="no"?>
<!DOCTYPE svg PUBLIC "-//W3C//DTD SVG 20010904//EN"
 "http://www.w3.org/TR/2001/REC-SVG-20010904/DTD/svg10.dtd">
<svg version="1.0" xmlns="http://www.w3.org/2000/svg"
 width="283.000000pt" height="283.000000pt" viewBox="0 0 283.000000 283.000000"
 preserveAspectRatio="xMidYMid meet">

<g transform="translate(0.000000,283.000000) scale(0.100000,-0.100000)"
fill="#FFFFFF" stroke="none">
<path d="M344 2764 c-158 -221 -273 -489 -321 -747 -21 -116 -24 -408 -5 -517
37 -207 95 -387 179 -555 217 -432 580 -735 1078 -901 l141 -46 136 45 c291
97 530 236 730 425 291 275 484 670 538 1102 48 394 -72 825 -336 1196 l-43
61 -85 -22 c-254 -68 -610 -66 -871 5 -69 18 -72 18 -137 0 -137 -38 -258 -53
-433 -53 -186 -1 -311 13 -441 48 l-85 22 -45 -63z m1226 -276 c0 -2 25 -111
54 -243 29 -132 53 -241 52 -242 -1 -2 -38 8 -81 22 -44 13 -81 23 -82 21 -11
-11 34 -174 67 -241 90 -185 252 -312 450 -353 73 -15 81 -19 76 -37 -3 -11
-6 -41 -6 -67 0 -48 0 -48 -33 -48 -61 0 -186 39 -277 86 -244 126 -404 377
-423 664 l-2 45 -87 30 -87 30 182 167 c158 145 196 177 197 166z m-282 -535
c40 -110 46 -148 46 -278 0 -149 -14 -214 -73 -340 -63 -134 -154 -239 -277
-322 l-52 -34 20 -86 c10 -47 17 -87 16 -88 -4 -4 -470 144 -477 150 -2 3 -2
6 0 8 12 8 355 323 360 330 9 13 14 0 29 -73 21 -103 18 -103 112 -9 69 68 93
101 127 169 60 124 74 192 69 325 -4 85 -11 126 -31 178 l-25 69 61 29 c34 16
65 29 68 29 4 0 16 -26 27 -57z m602 -699 c36 -8 102 -31 147 -50 l83 -36 62
56 c35 31 65 56 68 56 6 0 113 -480 108 -486 -4 -4 -467 142 -474 149 -3 3 23
30 57 61 34 31 60 57 58 59 -15 13 -106 41 -167 53 -148 28 -273 11 -412 -57
-67 -33 -103 -60 -167 -123 l-81 -81 -56 38 c-31 21 -56 41 -56 45 0 4 27 38
61 75 194 215 481 304 769 241z"/>
</g>
</svg>
